{"title":"The Children[2009]DvDrip-LW","uid":4931092,"size":733175030,"categoryP":"video","categoryS":"movies","magnet":"?xt=urn:btih:e70f5b03b345775cc76a8c3b649cccaae9d00436&amp;dn=The+Children%5B2009%5DDvDrip-LW&amp;tr=udp%3A%2F%2Ftracker.openbittorrent.com%3A80&amp;tr=udp%3A%2F%2Fopen.demonii.com%3A1337&amp;tr=udp%3A%2F%2Ftracker.coppersurfer.tk%3A6969&amp;tr=udp%3A%2F%2Fexodus.desync.com%3A6969","seeders":0,"leechers":0,"uploader":"XoLWoX","files":-1,"time":1244047672,"description":"-------------------------------------------------\nF I L E - I N F O\n-------------------------------------------------\nTITLE......[ The Children\nYEAR.......[ 2009\nGENRE......[ Horror / Thriller\nRUNTIME....[ 01:20:54\nSTORE DATE.[ 14 April 2009 (USA)\nIMDB RATE..[ 7.1/10 (152 votes)\nIMDB URL...[ http://www.imdb.com/title/tt1172571/\n-------------------------------------------------\nFormat                           : AVI\nFormat/Info                      : Audio Video Interleave\nFile size                        : 699 MiB\nDuration                         : 1h 20mn\nOverall bit rate                 : 1 208 Kbps\nWriting application              : Nandub v1.0rc2\nWriting library                  : Nandub build 1852/release\nSOURCE                           : DVD\n-------------------------------------------------\nV I D E O\n-------------------------------------------------\nFormat                           : MPEG-4 Visual\nFormat profile                   : Streaming Video@L1\nFormat settings, BVOP            : Yes\nFormat settings, QPel            : No\nFormat settings, GMC             : No warppoints\nFormat settings, Matrix          : Default (H.263)\nMuxing mode                      : Packed bitstream\nCodec ID                         : XVID\nCodec ID/Hint                    : XviD\nDuration                         : 1h 20mn\nBit rate                         : 1 069 Kbps\nWidth                            : 624 pixels\nHeight                           : 336 pixels\nDisplay aspect ratio             : 1.857\nFrame rate                       : 25.000 fps\nResolution                       : 24 bits\nColorimetry                      : 4:2:0\nScan type                        : Progressive\nBits/(Pixel*Frame)               : 0.204\nStream size                      : 618 MiB (88%)\nWriting library                  : XviD 1.2.1 (UTC 2008-12-04)\n-------------------------------------------------\nA U D I O\n-------------------------------------------------\nFormat                           : MPEG Audio\nFormat version                   : Version 1\nFormat profile                   : Layer 3\nCodec ID                         : 55\nCodec ID/Hint                    : MP3\nDuration                         : 1h 20mn\nBit rate mode                    : Variable\nBit rate                         : 127 Kbps\nMinimum bit rate                 : 134 Kbps\nChannel(s)                       : 2 channels\nSampling rate                    : 48.0 KHz\nResolution                       : 16 bits\nStream size                      : 73.2 MiB (10%)\nAlignment                        : Aligned on interleaves\nInterleave, duration             : 24 ms (0.60 video frame)\nInterleave, preload duration     : 494 ms\nWriting library                  : LAME3.98r\nEncoding settings                : ABR\n-------------------------------------------------\nP L O T\n-------------------------------------------------\nA relaxing Christmas vacation turns into a terrifying \nfight for survival as the children begin to turn on \ntheir parents.\n\nStarring: Rachel Shelley, Jeremy Sheffield\n\nDirector: Tom Shankland\n------------------------------------------------","torrent":{"xt":"urn:btih:e70f5b03b345775cc76a8c3b649cccaae9d00436","amp;dn":"The+Children%5B2009%5DDvDrip-LW","amp;tr":["udp%3A%2F%2Ftracker.openbittorrent.com%3A80","udp%3A%2F%2Fopen.demonii.com%3A1337","udp%3A%2F%2Ftracker.coppersurfer.tk%3A6969","udp%3A%2F%2Fexodus.desync.com%3A6969"],"infoHash":"e70f5b03b345775cc76a8c3b649cccaae9d00436","infoHashBuffer":{"type":"Buffer","data":[231,15,91,3,179,69,119,92,199,106,140,59,100,156,204,170,233,208,4,54]},"announce":[],"urlList":[]}}